<mxfile host="app.diagrams.net" agent="Mozilla/5.0 (Windows NT 10.0; Win64; x64) AppleWebKit/537.36 (KHTML, like Gecko) Chrome/127.0.0.0 Safari/537.36" version="24.7.8">
  <diagram name="第 1 页" id="TM_qCaVFwfWzXO-s07Fd">
    <mxGraphModel dx="1036" dy="457" grid="1" gridSize="10" guides="1" tooltips="1" connect="1" arrows="1" fold="1" page="1" pageScale="1" pageWidth="827" pageHeight="1169" math="0" shadow="0">
      <root>
        <mxCell id="0" />
        <mxCell id="1" parent="0" />
        <mxCell id="IZgogRWlO1CkMbzcWn_G-1" value="" style="ellipse;whiteSpace=wrap;html=1;aspect=fixed;" vertex="1" parent="1">
          <mxGeometry x="141" y="358.66999999999996" width="20" height="20" as="geometry" />
        </mxCell>
        <mxCell id="IZgogRWlO1CkMbzcWn_G-2" value="" style="endArrow=classic;html=1;rounded=0;exitX=1;exitY=0.5;exitDx=0;exitDy=0;" edge="1" parent="1" source="IZgogRWlO1CkMbzcWn_G-1">
          <mxGeometry width="50" height="50" relative="1" as="geometry">
            <mxPoint x="391" y="353.66999999999996" as="sourcePoint" />
            <mxPoint x="291" y="368.66999999999996" as="targetPoint" />
          </mxGeometry>
        </mxCell>
        <mxCell id="IZgogRWlO1CkMbzcWn_G-3" value="ProcessCreate" style="edgeLabel;html=1;align=center;verticalAlign=middle;resizable=0;points=[];" vertex="1" connectable="0" parent="IZgogRWlO1CkMbzcWn_G-2">
          <mxGeometry x="-0.16" y="3" relative="1" as="geometry">
            <mxPoint x="9" y="-7" as="offset" />
          </mxGeometry>
        </mxCell>
        <mxCell id="IZgogRWlO1CkMbzcWn_G-4" value="" style="endArrow=classic;html=1;rounded=0;entryX=0;entryY=0.5;entryDx=0;entryDy=0;" edge="1" parent="1" target="IZgogRWlO1CkMbzcWn_G-7">
          <mxGeometry width="50" height="50" relative="1" as="geometry">
            <mxPoint x="1160" y="299" as="sourcePoint" />
            <mxPoint x="1208" y="449" as="targetPoint" />
            <Array as="points">
              <mxPoint x="1160" y="359" />
            </Array>
          </mxGeometry>
        </mxCell>
        <mxCell id="IZgogRWlO1CkMbzcWn_G-5" value="ProcessCreate" style="edgeLabel;html=1;align=center;verticalAlign=middle;resizable=0;points=[];" vertex="1" connectable="0" parent="IZgogRWlO1CkMbzcWn_G-4">
          <mxGeometry x="-0.16" y="3" relative="1" as="geometry">
            <mxPoint x="39" y="-6" as="offset" />
          </mxGeometry>
        </mxCell>
        <mxCell id="IZgogRWlO1CkMbzcWn_G-6" value="explorer.exe" style="text;strokeColor=none;align=center;fillColor=none;html=1;verticalAlign=middle;whiteSpace=wrap;rounded=0;" vertex="1" parent="1">
          <mxGeometry x="121" y="373.66999999999996" width="60" height="30" as="geometry" />
        </mxCell>
        <mxCell id="IZgogRWlO1CkMbzcWn_G-7" value="" style="ellipse;whiteSpace=wrap;html=1;aspect=fixed;fillColor=#f8cecc;strokeColor=#b85450;" vertex="1" parent="1">
          <mxGeometry x="1260" y="349" width="20" height="20" as="geometry" />
        </mxCell>
        <mxCell id="IZgogRWlO1CkMbzcWn_G-8" value="window.exe" style="text;strokeColor=none;align=center;fillColor=none;html=1;verticalAlign=middle;whiteSpace=wrap;rounded=0;" vertex="1" parent="1">
          <mxGeometry x="1240" y="364" width="60" height="30" as="geometry" />
        </mxCell>
        <mxCell id="IZgogRWlO1CkMbzcWn_G-9" value="" style="endArrow=classic;html=1;rounded=0;exitX=0.5;exitY=0;exitDx=0;exitDy=0;entryX=0.5;entryY=1;entryDx=0;entryDy=0;" edge="1" parent="1" source="IZgogRWlO1CkMbzcWn_G-1" target="IZgogRWlO1CkMbzcWn_G-11">
          <mxGeometry width="50" height="50" relative="1" as="geometry">
            <mxPoint x="150" y="274.17" as="sourcePoint" />
            <mxPoint x="150" y="190" as="targetPoint" />
          </mxGeometry>
        </mxCell>
        <mxCell id="IZgogRWlO1CkMbzcWn_G-10" value="ProcessCreate" style="edgeLabel;html=1;align=center;verticalAlign=middle;resizable=0;points=[];" vertex="1" connectable="0" parent="IZgogRWlO1CkMbzcWn_G-9">
          <mxGeometry x="-0.16" y="3" relative="1" as="geometry">
            <mxPoint x="3" y="-7" as="offset" />
          </mxGeometry>
        </mxCell>
        <mxCell id="IZgogRWlO1CkMbzcWn_G-11" value="" style="ellipse;whiteSpace=wrap;html=1;aspect=fixed;" vertex="1" parent="1">
          <mxGeometry x="140" y="168" width="20" height="20" as="geometry" />
        </mxCell>
        <mxCell id="IZgogRWlO1CkMbzcWn_G-12" value="CMClient.exe" style="text;strokeColor=none;align=center;fillColor=none;html=1;verticalAlign=middle;whiteSpace=wrap;rounded=0;" vertex="1" parent="1">
          <mxGeometry x="123" y="145" width="60" height="30" as="geometry" />
        </mxCell>
        <mxCell id="IZgogRWlO1CkMbzcWn_G-13" value="" style="endArrow=classic;html=1;rounded=0;exitX=1;exitY=0.5;exitDx=0;exitDy=0;edgeStyle=elbowEdgeStyle;dashed=1;entryX=0;entryY=0.5;entryDx=0;entryDy=0;" edge="1" parent="1" target="IZgogRWlO1CkMbzcWn_G-15">
          <mxGeometry width="50" height="50" relative="1" as="geometry">
            <mxPoint x="160" y="179.57999999999998" as="sourcePoint" />
            <mxPoint x="210" y="120" as="targetPoint" />
            <Array as="points">
              <mxPoint x="180" y="180" />
            </Array>
          </mxGeometry>
        </mxCell>
        <mxCell id="IZgogRWlO1CkMbzcWn_G-14" value="FileCreate" style="edgeLabel;html=1;align=center;verticalAlign=middle;resizable=0;points=[];" vertex="1" connectable="0" parent="IZgogRWlO1CkMbzcWn_G-13">
          <mxGeometry x="-0.16" y="3" relative="1" as="geometry">
            <mxPoint x="6" y="-7" as="offset" />
          </mxGeometry>
        </mxCell>
        <mxCell id="IZgogRWlO1CkMbzcWn_G-15" value="" style="shape=document;whiteSpace=wrap;html=1;boundedLbl=1;" vertex="1" parent="1">
          <mxGeometry x="293" y="171" width="30" height="20" as="geometry" />
        </mxCell>
        <mxCell id="IZgogRWlO1CkMbzcWn_G-16" value=".zip" style="text;strokeColor=none;align=center;fillColor=none;html=1;verticalAlign=middle;whiteSpace=wrap;rounded=0;" vertex="1" parent="1">
          <mxGeometry x="305" y="160" width="60" height="30" as="geometry" />
        </mxCell>
        <mxCell id="IZgogRWlO1CkMbzcWn_G-17" value="" style="endArrow=classic;html=1;rounded=0;exitX=0.5;exitY=1;exitDx=0;exitDy=0;edgeStyle=elbowEdgeStyle;dashed=1;" edge="1" parent="1" source="IZgogRWlO1CkMbzcWn_G-77">
          <mxGeometry width="50" height="50" relative="1" as="geometry">
            <mxPoint x="241.33999999999992" y="194.65999999999997" as="sourcePoint" />
            <mxPoint x="307" y="350" as="targetPoint" />
            <Array as="points">
              <mxPoint x="307" y="212" />
            </Array>
          </mxGeometry>
        </mxCell>
        <mxCell id="IZgogRWlO1CkMbzcWn_G-18" value="" style="ellipse;whiteSpace=wrap;html=1;aspect=fixed;" vertex="1" parent="1">
          <mxGeometry x="295" y="123" width="24" height="24" as="geometry" />
        </mxCell>
        <mxCell id="IZgogRWlO1CkMbzcWn_G-19" value="winrar.exe" style="text;strokeColor=none;align=center;fillColor=none;html=1;verticalAlign=middle;whiteSpace=wrap;rounded=0;" vertex="1" parent="1">
          <mxGeometry x="271" y="98" width="60" height="30" as="geometry" />
        </mxCell>
        <mxCell id="IZgogRWlO1CkMbzcWn_G-20" value="" style="endArrow=classic;html=1;rounded=0;entryX=0.339;entryY=-0.066;entryDx=0;entryDy=0;entryPerimeter=0;" edge="1" parent="1">
          <mxGeometry width="50" height="50" relative="1" as="geometry">
            <mxPoint x="1160" y="359" as="sourcePoint" />
            <mxPoint x="1260.3400000000001" y="465.69000000000005" as="targetPoint" />
            <Array as="points">
              <mxPoint x="1160" y="466" />
            </Array>
          </mxGeometry>
        </mxCell>
        <mxCell id="IZgogRWlO1CkMbzcWn_G-21" value="ProcessCreate" style="edgeLabel;html=1;align=center;verticalAlign=middle;resizable=0;points=[];" vertex="1" connectable="0" parent="IZgogRWlO1CkMbzcWn_G-20">
          <mxGeometry x="-0.16" y="3" relative="1" as="geometry">
            <mxPoint x="38" y="-5" as="offset" />
          </mxGeometry>
        </mxCell>
        <mxCell id="IZgogRWlO1CkMbzcWn_G-22" value="" style="endArrow=classic;html=1;rounded=0;exitX=1;exitY=0.5;exitDx=0;exitDy=0;" edge="1" parent="1">
          <mxGeometry width="50" height="50" relative="1" as="geometry">
            <mxPoint x="1070" y="294" as="sourcePoint" />
            <mxPoint x="1260" y="159" as="targetPoint" />
            <Array as="points">
              <mxPoint x="1160" y="294" />
              <mxPoint x="1160" y="159" />
            </Array>
          </mxGeometry>
        </mxCell>
        <mxCell id="IZgogRWlO1CkMbzcWn_G-23" value="NetWorkConnect" style="edgeLabel;html=1;align=center;verticalAlign=middle;resizable=0;points=[];" vertex="1" connectable="0" parent="IZgogRWlO1CkMbzcWn_G-22">
          <mxGeometry x="0.0831" y="3" relative="1" as="geometry">
            <mxPoint x="48" y="-59" as="offset" />
          </mxGeometry>
        </mxCell>
        <mxCell id="IZgogRWlO1CkMbzcWn_G-24" value="" style="ellipse;shape=cloud;whiteSpace=wrap;html=1;" vertex="1" parent="1">
          <mxGeometry x="1257" y="145" width="43" height="22" as="geometry" />
        </mxCell>
        <mxCell id="IZgogRWlO1CkMbzcWn_G-25" value="" style="endArrow=classic;html=1;rounded=0;" edge="1" parent="1">
          <mxGeometry width="50" height="50" relative="1" as="geometry">
            <mxPoint x="1160" y="199" as="sourcePoint" />
            <mxPoint x="1260" y="199" as="targetPoint" />
          </mxGeometry>
        </mxCell>
        <mxCell id="IZgogRWlO1CkMbzcWn_G-26" value="ReflectiveInject" style="edgeLabel;html=1;align=center;verticalAlign=middle;resizable=0;points=[];" vertex="1" connectable="0" parent="IZgogRWlO1CkMbzcWn_G-25">
          <mxGeometry x="0.152" y="-2" relative="1" as="geometry">
            <mxPoint x="-10" y="-10" as="offset" />
          </mxGeometry>
        </mxCell>
        <mxCell id="IZgogRWlO1CkMbzcWn_G-27" value="" style="shape=document;whiteSpace=wrap;html=1;boundedLbl=1;" vertex="1" parent="1">
          <mxGeometry x="1261" y="190" width="30" height="20" as="geometry" />
        </mxCell>
        <mxCell id="IZgogRWlO1CkMbzcWn_G-28" value=".jpg" style="text;strokeColor=none;align=center;fillColor=none;html=1;verticalAlign=middle;whiteSpace=wrap;rounded=0;" vertex="1" parent="1">
          <mxGeometry x="1247" y="200" width="60" height="30" as="geometry" />
        </mxCell>
        <mxCell id="IZgogRWlO1CkMbzcWn_G-29" value="" style="endArrow=classic;html=1;rounded=0;" edge="1" parent="1">
          <mxGeometry width="50" height="50" relative="1" as="geometry">
            <mxPoint x="1160" y="237" as="sourcePoint" />
            <mxPoint x="1260" y="237" as="targetPoint" />
          </mxGeometry>
        </mxCell>
        <mxCell id="IZgogRWlO1CkMbzcWn_G-30" value="ProcessCreate" style="edgeLabel;html=1;align=center;verticalAlign=middle;resizable=0;points=[];" vertex="1" connectable="0" parent="IZgogRWlO1CkMbzcWn_G-29">
          <mxGeometry x="0.152" y="-2" relative="1" as="geometry">
            <mxPoint x="-10" y="-10" as="offset" />
          </mxGeometry>
        </mxCell>
        <mxCell id="IZgogRWlO1CkMbzcWn_G-31" value="config.exe" style="text;strokeColor=none;align=center;fillColor=none;html=1;verticalAlign=middle;whiteSpace=wrap;rounded=0;" vertex="1" parent="1">
          <mxGeometry x="1244" y="237" width="60" height="30" as="geometry" />
        </mxCell>
        <mxCell id="IZgogRWlO1CkMbzcWn_G-32" value="" style="ellipse;whiteSpace=wrap;html=1;aspect=fixed;fillColor=#f8cecc;strokeColor=#b85450;" vertex="1" parent="1">
          <mxGeometry x="1260" y="226" width="20" height="20" as="geometry" />
        </mxCell>
        <mxCell id="IZgogRWlO1CkMbzcWn_G-33" value="" style="endArrow=classic;html=1;rounded=0;" edge="1" parent="1">
          <mxGeometry width="50" height="50" relative="1" as="geometry">
            <mxPoint x="1280" y="237" as="sourcePoint" />
            <mxPoint x="1380" y="237" as="targetPoint" />
          </mxGeometry>
        </mxCell>
        <mxCell id="IZgogRWlO1CkMbzcWn_G-34" value="registryOperate" style="edgeLabel;html=1;align=center;verticalAlign=middle;resizable=0;points=[];" vertex="1" connectable="0" parent="IZgogRWlO1CkMbzcWn_G-33">
          <mxGeometry x="0.152" y="-2" relative="1" as="geometry">
            <mxPoint x="-10" y="-10" as="offset" />
          </mxGeometry>
        </mxCell>
        <mxCell id="IZgogRWlO1CkMbzcWn_G-35" value="RegClassification:1&lt;br&gt;开机启动项" style="text;strokeColor=none;align=center;fillColor=none;html=1;verticalAlign=middle;whiteSpace=wrap;rounded=0;" vertex="1" parent="1">
          <mxGeometry x="1412" y="216" width="76" height="30" as="geometry" />
        </mxCell>
        <mxCell id="IZgogRWlO1CkMbzcWn_G-36" value="" style="shape=process;whiteSpace=wrap;html=1;backgroundOutline=1;" vertex="1" parent="1">
          <mxGeometry x="1380" y="232" width="20" height="10" as="geometry" />
        </mxCell>
        <mxCell id="IZgogRWlO1CkMbzcWn_G-37" value="" style="endArrow=classic;html=1;rounded=0;exitX=0.611;exitY=0.035;exitDx=0;exitDy=0;exitPerimeter=0;dashed=1;" edge="1" parent="1" source="IZgogRWlO1CkMbzcWn_G-31">
          <mxGeometry width="50" height="50" relative="1" as="geometry">
            <mxPoint x="1280" y="298" as="sourcePoint" />
            <mxPoint x="1380" y="298" as="targetPoint" />
          </mxGeometry>
        </mxCell>
        <mxCell id="IZgogRWlO1CkMbzcWn_G-38" value="AutoStart" style="edgeLabel;html=1;align=center;verticalAlign=middle;resizable=0;points=[];" vertex="1" connectable="0" parent="IZgogRWlO1CkMbzcWn_G-37">
          <mxGeometry x="0.152" y="-2" relative="1" as="geometry">
            <mxPoint x="1" y="-2" as="offset" />
          </mxGeometry>
        </mxCell>
        <mxCell id="IZgogRWlO1CkMbzcWn_G-39" value="CCMini.exe" style="text;strokeColor=none;align=center;fillColor=none;html=1;verticalAlign=middle;whiteSpace=wrap;rounded=0;" vertex="1" parent="1">
          <mxGeometry x="1357" y="305" width="76" height="30" as="geometry" />
        </mxCell>
        <mxCell id="IZgogRWlO1CkMbzcWn_G-40" value="" style="ellipse;whiteSpace=wrap;html=1;aspect=fixed;fillColor=#f8cecc;strokeColor=#b85450;" vertex="1" parent="1">
          <mxGeometry x="1380" y="285" width="20" height="20" as="geometry" />
        </mxCell>
        <mxCell id="IZgogRWlO1CkMbzcWn_G-41" value="" style="endArrow=classic;html=1;rounded=0;" edge="1" parent="1">
          <mxGeometry width="50" height="50" relative="1" as="geometry">
            <mxPoint x="1400" y="295.43" as="sourcePoint" />
            <mxPoint x="1500" y="295.43" as="targetPoint" />
          </mxGeometry>
        </mxCell>
        <mxCell id="IZgogRWlO1CkMbzcWn_G-42" value="ImageLoad" style="edgeLabel;html=1;align=center;verticalAlign=middle;resizable=0;points=[];" vertex="1" connectable="0" parent="IZgogRWlO1CkMbzcWn_G-41">
          <mxGeometry x="0.152" y="-2" relative="1" as="geometry">
            <mxPoint x="-10" y="-10" as="offset" />
          </mxGeometry>
        </mxCell>
        <mxCell id="IZgogRWlO1CkMbzcWn_G-43" value="AudioEngine.dll" style="text;strokeColor=none;align=center;fillColor=none;html=1;verticalAlign=middle;whiteSpace=wrap;rounded=0;" vertex="1" parent="1">
          <mxGeometry x="1478" y="304" width="76" height="30" as="geometry" />
        </mxCell>
        <mxCell id="IZgogRWlO1CkMbzcWn_G-44" value="" style="ellipse;whiteSpace=wrap;html=1;aspect=fixed;" vertex="1" parent="1">
          <mxGeometry x="1501" y="284" width="20" height="20" as="geometry" />
        </mxCell>
        <mxCell id="IZgogRWlO1CkMbzcWn_G-45" value="" style="ellipse;whiteSpace=wrap;html=1;aspect=fixed;fillColor=#f8cecc;strokeColor=#b85450;" vertex="1" parent="1">
          <mxGeometry x="1260" y="452.67" width="20" height="20" as="geometry" />
        </mxCell>
        <mxCell id="IZgogRWlO1CkMbzcWn_G-46" value="window.exe" style="text;strokeColor=none;align=center;fillColor=none;html=1;verticalAlign=middle;whiteSpace=wrap;rounded=0;" vertex="1" parent="1">
          <mxGeometry x="1248.5" y="472.67" width="60" height="30" as="geometry" />
        </mxCell>
        <mxCell id="IZgogRWlO1CkMbzcWn_G-47" value="" style="curved=1;endArrow=classic;html=1;rounded=0;exitX=0;exitY=0;exitDx=0;exitDy=0;entryX=1;entryY=0;entryDx=0;entryDy=0;dashed=1;" edge="1" parent="1" source="IZgogRWlO1CkMbzcWn_G-45" target="IZgogRWlO1CkMbzcWn_G-45">
          <mxGeometry width="50" height="50" relative="1" as="geometry">
            <mxPoint x="1230" y="412.67" as="sourcePoint" />
            <mxPoint x="1280" y="362.67" as="targetPoint" />
            <Array as="points">
              <mxPoint x="1250" y="422.67" />
              <mxPoint x="1263" y="402.67" />
              <mxPoint x="1290" y="422.67" />
            </Array>
          </mxGeometry>
        </mxCell>
        <mxCell id="IZgogRWlO1CkMbzcWn_G-48" value="ReflectiveInject" style="text;whiteSpace=wrap;" vertex="1" parent="1">
          <mxGeometry x="1228" y="388.67" width="90" height="20" as="geometry" />
        </mxCell>
        <mxCell id="IZgogRWlO1CkMbzcWn_G-49" value="" style="shape=document;whiteSpace=wrap;html=1;boundedLbl=1;" vertex="1" parent="1">
          <mxGeometry x="531.02" y="591.3299999999999" width="30" height="20" as="geometry" />
        </mxCell>
        <mxCell id="IZgogRWlO1CkMbzcWn_G-50" value="GoogleCrashHandler.exe" style="text;strokeColor=none;align=center;fillColor=none;html=1;verticalAlign=middle;whiteSpace=wrap;rounded=0;" vertex="1" parent="1">
          <mxGeometry x="497.02" y="605" width="97" height="30" as="geometry" />
        </mxCell>
        <mxCell id="IZgogRWlO1CkMbzcWn_G-51" value="" style="endArrow=classic;html=1;rounded=0;edgeStyle=elbowEdgeStyle;dashed=1;" edge="1" parent="1">
          <mxGeometry width="50" height="50" relative="1" as="geometry">
            <mxPoint x="547.02" y="510" as="sourcePoint" />
            <mxPoint x="677.02" y="591.3299999999999" as="targetPoint" />
            <Array as="points">
              <mxPoint x="677.02" y="511.33000000000004" />
            </Array>
          </mxGeometry>
        </mxCell>
        <mxCell id="IZgogRWlO1CkMbzcWn_G-52" value="FileCreate" style="edgeLabel;html=1;align=center;verticalAlign=middle;resizable=0;points=[];" vertex="1" connectable="0" parent="IZgogRWlO1CkMbzcWn_G-51">
          <mxGeometry x="-0.16" y="3" relative="1" as="geometry">
            <mxPoint x="-3" y="20" as="offset" />
          </mxGeometry>
        </mxCell>
        <mxCell id="IZgogRWlO1CkMbzcWn_G-53" value="" style="shape=document;whiteSpace=wrap;html=1;boundedLbl=1;" vertex="1" parent="1">
          <mxGeometry x="660.52" y="591.3299999999999" width="30" height="20" as="geometry" />
        </mxCell>
        <mxCell id="IZgogRWlO1CkMbzcWn_G-54" value="version.dll" style="text;strokeColor=none;align=center;fillColor=none;html=1;verticalAlign=middle;whiteSpace=wrap;rounded=0;" vertex="1" parent="1">
          <mxGeometry x="627.02" y="605" width="97" height="30" as="geometry" />
        </mxCell>
        <mxCell id="IZgogRWlO1CkMbzcWn_G-55" value="" style="endArrow=classic;html=1;rounded=0;exitX=1;exitY=0.5;exitDx=0;exitDy=0;" edge="1" parent="1">
          <mxGeometry width="50" height="50" relative="1" as="geometry">
            <mxPoint x="422.02" y="695.3399999999999" as="sourcePoint" />
            <mxPoint x="537.02" y="694.67" as="targetPoint" />
          </mxGeometry>
        </mxCell>
        <mxCell id="IZgogRWlO1CkMbzcWn_G-56" value="LnkProcessCreate" style="edgeLabel;html=1;align=center;verticalAlign=middle;resizable=0;points=[];" vertex="1" connectable="0" parent="IZgogRWlO1CkMbzcWn_G-55">
          <mxGeometry x="-0.16" y="3" relative="1" as="geometry">
            <mxPoint x="-29" y="193" as="offset" />
          </mxGeometry>
        </mxCell>
        <mxCell id="IZgogRWlO1CkMbzcWn_G-57" value="" style="ellipse;whiteSpace=wrap;html=1;aspect=fixed;fillColor=#f8cecc;strokeColor=#b85450;" vertex="1" parent="1">
          <mxGeometry x="537.02" y="685.17" width="20" height="20" as="geometry" />
        </mxCell>
        <mxCell id="IZgogRWlO1CkMbzcWn_G-58" value="" style="endArrow=classic;html=1;rounded=0;entryX=0.5;entryY=0;entryDx=0;entryDy=0;dashed=1;" edge="1" parent="1" target="IZgogRWlO1CkMbzcWn_G-57">
          <mxGeometry width="50" height="50" relative="1" as="geometry">
            <mxPoint x="547.02" y="610" as="sourcePoint" />
            <mxPoint x="687.02" y="649.4999999999999" as="targetPoint" />
          </mxGeometry>
        </mxCell>
        <mxCell id="IZgogRWlO1CkMbzcWn_G-59" value="" style="endArrow=classic;html=1;rounded=0;exitX=1;exitY=0.5;exitDx=0;exitDy=0;entryX=0;entryY=0.5;entryDx=0;entryDy=0;" edge="1" parent="1" target="IZgogRWlO1CkMbzcWn_G-61">
          <mxGeometry width="50" height="50" relative="1" as="geometry">
            <mxPoint x="557.02" y="696.5" as="sourcePoint" />
            <mxPoint x="672.02" y="695.8299999999999" as="targetPoint" />
            <Array as="points">
              <mxPoint x="557.02" y="645" />
            </Array>
          </mxGeometry>
        </mxCell>
        <mxCell id="IZgogRWlO1CkMbzcWn_G-60" value="ImageLoad" style="edgeLabel;html=1;align=center;verticalAlign=middle;resizable=0;points=[];" vertex="1" connectable="0" parent="IZgogRWlO1CkMbzcWn_G-59">
          <mxGeometry x="-0.16" y="3" relative="1" as="geometry">
            <mxPoint x="9" y="-7" as="offset" />
          </mxGeometry>
        </mxCell>
        <mxCell id="IZgogRWlO1CkMbzcWn_G-61" value="" style="ellipse;whiteSpace=wrap;html=1;aspect=fixed;" vertex="1" parent="1">
          <mxGeometry x="665.52" y="635.3299999999999" width="20" height="20" as="geometry" />
        </mxCell>
        <mxCell id="IZgogRWlO1CkMbzcWn_G-62" value="version.dll" style="text;strokeColor=none;align=center;fillColor=none;html=1;verticalAlign=middle;whiteSpace=wrap;rounded=0;" vertex="1" parent="1">
          <mxGeometry x="645.52" y="648.9999999999999" width="60" height="30" as="geometry" />
        </mxCell>
        <mxCell id="IZgogRWlO1CkMbzcWn_G-63" value="" style="endArrow=classic;html=1;rounded=0;entryX=0.5;entryY=0;entryDx=0;entryDy=0;dashed=1;exitX=0.5;exitY=0;exitDx=0;exitDy=0;" edge="1" parent="1" source="IZgogRWlO1CkMbzcWn_G-54" target="IZgogRWlO1CkMbzcWn_G-61">
          <mxGeometry width="50" height="50" relative="1" as="geometry">
            <mxPoint x="682.02" y="609.8299999999999" as="sourcePoint" />
            <mxPoint x="822.02" y="649.3299999999999" as="targetPoint" />
          </mxGeometry>
        </mxCell>
        <mxCell id="IZgogRWlO1CkMbzcWn_G-64" value="" style="endArrow=classic;html=1;rounded=0;entryX=0;entryY=0.5;entryDx=0;entryDy=0;" edge="1" parent="1" target="IZgogRWlO1CkMbzcWn_G-67">
          <mxGeometry width="50" height="50" relative="1" as="geometry">
            <mxPoint x="557.02" y="696.1700000000001" as="sourcePoint" />
            <mxPoint x="657.02" y="696.1700000000001" as="targetPoint" />
          </mxGeometry>
        </mxCell>
        <mxCell id="IZgogRWlO1CkMbzcWn_G-65" value="ProcessCreate" style="edgeLabel;html=1;align=center;verticalAlign=middle;resizable=0;points=[];" vertex="1" connectable="0" parent="IZgogRWlO1CkMbzcWn_G-64">
          <mxGeometry x="0.152" y="-2" relative="1" as="geometry">
            <mxPoint x="-10" y="-10" as="offset" />
          </mxGeometry>
        </mxCell>
        <mxCell id="IZgogRWlO1CkMbzcWn_G-66" value="cmd.exe" style="text;strokeColor=none;align=center;fillColor=none;html=1;verticalAlign=middle;whiteSpace=wrap;rounded=0;" vertex="1" parent="1">
          <mxGeometry x="646.02" y="698.1700000000001" width="60" height="30" as="geometry" />
        </mxCell>
        <mxCell id="IZgogRWlO1CkMbzcWn_G-67" value="" style="ellipse;whiteSpace=wrap;html=1;aspect=fixed;fillColor=#f8cecc;strokeColor=#b85450;" vertex="1" parent="1">
          <mxGeometry x="665.02" y="685.1700000000001" width="20" height="20" as="geometry" />
        </mxCell>
        <mxCell id="IZgogRWlO1CkMbzcWn_G-68" value="" style="endArrow=classic;html=1;rounded=0;entryX=0;entryY=0.5;entryDx=0;entryDy=0;" edge="1" parent="1" target="IZgogRWlO1CkMbzcWn_G-71">
          <mxGeometry width="50" height="50" relative="1" as="geometry">
            <mxPoint x="685.52" y="696.1700000000001" as="sourcePoint" />
            <mxPoint x="785.52" y="696.1700000000001" as="targetPoint" />
          </mxGeometry>
        </mxCell>
        <mxCell id="IZgogRWlO1CkMbzcWn_G-69" value="ProcessCreate" style="edgeLabel;html=1;align=center;verticalAlign=middle;resizable=0;points=[];" vertex="1" connectable="0" parent="IZgogRWlO1CkMbzcWn_G-68">
          <mxGeometry x="0.152" y="-2" relative="1" as="geometry">
            <mxPoint x="-10" y="-10" as="offset" />
          </mxGeometry>
        </mxCell>
        <mxCell id="IZgogRWlO1CkMbzcWn_G-70" value="whoami.exe" style="text;strokeColor=none;align=center;fillColor=none;html=1;verticalAlign=middle;whiteSpace=wrap;rounded=0;" vertex="1" parent="1">
          <mxGeometry x="774.52" y="698.1700000000001" width="60" height="30" as="geometry" />
        </mxCell>
        <mxCell id="IZgogRWlO1CkMbzcWn_G-71" value="" style="ellipse;whiteSpace=wrap;html=1;aspect=fixed;" vertex="1" parent="1">
          <mxGeometry x="793.52" y="685.1700000000001" width="20" height="20" as="geometry" />
        </mxCell>
        <mxCell id="IZgogRWlO1CkMbzcWn_G-72" value="" style="curved=1;endArrow=classic;html=1;rounded=0;exitX=0;exitY=1;exitDx=0;exitDy=0;entryX=1;entryY=1;entryDx=0;entryDy=0;dashed=1;" edge="1" parent="1" source="IZgogRWlO1CkMbzcWn_G-57" target="IZgogRWlO1CkMbzcWn_G-57">
          <mxGeometry width="50" height="50" relative="1" as="geometry">
            <mxPoint x="544.02" y="782.6700000000001" as="sourcePoint" />
            <mxPoint x="594.02" y="732.6700000000001" as="targetPoint" />
            <Array as="points">
              <mxPoint x="527.02" y="750" />
              <mxPoint x="537.02" y="770" />
              <mxPoint x="587.02" y="770" />
            </Array>
          </mxGeometry>
        </mxCell>
        <mxCell id="IZgogRWlO1CkMbzcWn_G-73" value="ReflectiveInject" style="text;whiteSpace=wrap;" vertex="1" parent="1">
          <mxGeometry x="504.02" y="770" width="90" height="20" as="geometry" />
        </mxCell>
        <mxCell id="IZgogRWlO1CkMbzcWn_G-74" value="GoogleCrashHandler64.exe" style="text;strokeColor=none;align=center;fillColor=none;html=1;verticalAlign=middle;whiteSpace=wrap;rounded=0;" vertex="1" parent="1">
          <mxGeometry x="515.52" y="706.9999999999999" width="60" height="30" as="geometry" />
        </mxCell>
        <mxCell id="IZgogRWlO1CkMbzcWn_G-75" value="" style="endArrow=classic;html=1;rounded=0;exitX=0.5;exitY=1;exitDx=0;exitDy=0;edgeStyle=elbowEdgeStyle;dashed=1;" edge="1" parent="1" source="IZgogRWlO1CkMbzcWn_G-18" target="IZgogRWlO1CkMbzcWn_G-77">
          <mxGeometry width="50" height="50" relative="1" as="geometry">
            <mxPoint x="307" y="147" as="sourcePoint" />
            <mxPoint x="307" y="350" as="targetPoint" />
            <Array as="points" />
          </mxGeometry>
        </mxCell>
        <mxCell id="IZgogRWlO1CkMbzcWn_G-76" value="FileCreate" style="edgeLabel;html=1;align=center;verticalAlign=middle;resizable=0;points=[];" vertex="1" connectable="0" parent="IZgogRWlO1CkMbzcWn_G-75">
          <mxGeometry x="-0.16" y="3" relative="1" as="geometry">
            <mxPoint x="-3" y="20" as="offset" />
          </mxGeometry>
        </mxCell>
        <mxCell id="IZgogRWlO1CkMbzcWn_G-77" value="" style="shape=document;whiteSpace=wrap;html=1;boundedLbl=1;" vertex="1" parent="1">
          <mxGeometry x="290" y="261.33" width="30" height="20" as="geometry" />
        </mxCell>
        <mxCell id="IZgogRWlO1CkMbzcWn_G-78" value=".doc" style="text;strokeColor=none;align=center;fillColor=none;html=1;verticalAlign=middle;whiteSpace=wrap;rounded=0;" vertex="1" parent="1">
          <mxGeometry x="242" y="256.33" width="65" height="26" as="geometry" />
        </mxCell>
        <mxCell id="IZgogRWlO1CkMbzcWn_G-79" value="winword.exe" style="text;strokeColor=none;align=center;fillColor=none;html=1;verticalAlign=middle;whiteSpace=wrap;rounded=0;" vertex="1" parent="1">
          <mxGeometry x="278" y="370.5" width="60" height="30" as="geometry" />
        </mxCell>
        <mxCell id="IZgogRWlO1CkMbzcWn_G-80" value="" style="ellipse;whiteSpace=wrap;html=1;aspect=fixed;fillColor=#f8cecc;strokeColor=#b85450;" vertex="1" parent="1">
          <mxGeometry x="297" y="357.5" width="20" height="20" as="geometry" />
        </mxCell>
        <mxCell id="IZgogRWlO1CkMbzcWn_G-81" value="" style="endArrow=classic;html=1;rounded=0;entryX=0;entryY=0.5;entryDx=0;entryDy=0;" edge="1" parent="1" target="IZgogRWlO1CkMbzcWn_G-83">
          <mxGeometry width="50" height="50" relative="1" as="geometry">
            <mxPoint x="317.5" y="368.5" as="sourcePoint" />
            <mxPoint x="426" y="367.33000000000004" as="targetPoint" />
            <Array as="points">
              <mxPoint x="340" y="290" />
            </Array>
          </mxGeometry>
        </mxCell>
        <mxCell id="IZgogRWlO1CkMbzcWn_G-82" value="FileCreate" style="edgeLabel;html=1;align=center;verticalAlign=middle;resizable=0;points=[];" vertex="1" connectable="0" parent="IZgogRWlO1CkMbzcWn_G-81">
          <mxGeometry x="0.152" y="-2" relative="1" as="geometry">
            <mxPoint x="-10" y="-10" as="offset" />
          </mxGeometry>
        </mxCell>
        <mxCell id="IZgogRWlO1CkMbzcWn_G-83" value="" style="shape=document;whiteSpace=wrap;html=1;boundedLbl=1;" vertex="1" parent="1">
          <mxGeometry x="478.5" y="221.33" width="30" height="20" as="geometry" />
        </mxCell>
        <mxCell id="IZgogRWlO1CkMbzcWn_G-84" value="MsMpEng.exe" style="text;strokeColor=none;align=center;fillColor=none;html=1;verticalAlign=middle;whiteSpace=wrap;rounded=0;" vertex="1" parent="1">
          <mxGeometry x="462.5" y="235.33" width="65" height="26" as="geometry" />
        </mxCell>
        <mxCell id="IZgogRWlO1CkMbzcWn_G-85" value="" style="endArrow=classic;html=1;rounded=0;entryX=0;entryY=0.5;entryDx=0;entryDy=0;dashed=1;" edge="1" parent="1" target="IZgogRWlO1CkMbzcWn_G-87">
          <mxGeometry width="50" height="50" relative="1" as="geometry">
            <mxPoint x="319" y="369.6700000000001" as="sourcePoint" />
            <mxPoint x="419" y="369.6700000000001" as="targetPoint" />
          </mxGeometry>
        </mxCell>
        <mxCell id="IZgogRWlO1CkMbzcWn_G-86" value="ProcessCreate（Task）" style="edgeLabel;html=1;align=center;verticalAlign=middle;resizable=0;points=[];" vertex="1" connectable="0" parent="IZgogRWlO1CkMbzcWn_G-85">
          <mxGeometry x="0.152" y="-2" relative="1" as="geometry">
            <mxPoint x="-10" y="-10" as="offset" />
          </mxGeometry>
        </mxCell>
        <mxCell id="IZgogRWlO1CkMbzcWn_G-87" value="" style="ellipse;whiteSpace=wrap;html=1;aspect=fixed;fillColor=#f8cecc;strokeColor=#b85450;" vertex="1" parent="1">
          <mxGeometry x="484" y="358.6700000000001" width="20" height="20" as="geometry" />
        </mxCell>
        <mxCell id="IZgogRWlO1CkMbzcWn_G-88" value="MsMpEng.exe" style="text;strokeColor=none;align=center;fillColor=none;html=1;verticalAlign=middle;whiteSpace=wrap;rounded=0;" vertex="1" parent="1">
          <mxGeometry x="466" y="371.6700000000001" width="60" height="30" as="geometry" />
        </mxCell>
        <mxCell id="IZgogRWlO1CkMbzcWn_G-89" value="" style="endArrow=classic;html=1;rounded=0;entryX=0;entryY=0.5;entryDx=0;entryDy=0;dashed=1;" edge="1" parent="1" target="IZgogRWlO1CkMbzcWn_G-91">
          <mxGeometry width="50" height="50" relative="1" as="geometry">
            <mxPoint x="504" y="369.6700000000001" as="sourcePoint" />
            <mxPoint x="604" y="369.6700000000001" as="targetPoint" />
          </mxGeometry>
        </mxCell>
        <mxCell id="IZgogRWlO1CkMbzcWn_G-90" value="ProcessCreate（Task）" style="edgeLabel;html=1;align=center;verticalAlign=middle;resizable=0;points=[];" vertex="1" connectable="0" parent="IZgogRWlO1CkMbzcWn_G-89">
          <mxGeometry x="0.152" y="-2" relative="1" as="geometry">
            <mxPoint x="-10" y="-10" as="offset" />
          </mxGeometry>
        </mxCell>
        <mxCell id="IZgogRWlO1CkMbzcWn_G-91" value="" style="ellipse;whiteSpace=wrap;html=1;aspect=fixed;fillColor=#f8cecc;strokeColor=#b85450;" vertex="1" parent="1">
          <mxGeometry x="715.02" y="359.50000000000006" width="20" height="20" as="geometry" />
        </mxCell>
        <mxCell id="IZgogRWlO1CkMbzcWn_G-92" value="iusb3mon.exe" style="text;strokeColor=none;align=center;fillColor=none;html=1;verticalAlign=middle;whiteSpace=wrap;rounded=0;" vertex="1" parent="1">
          <mxGeometry x="696.02" y="372.50000000000006" width="60" height="30" as="geometry" />
        </mxCell>
        <mxCell id="IZgogRWlO1CkMbzcWn_G-93" value="" style="endArrow=classic;html=1;rounded=0;entryX=0;entryY=0.5;entryDx=0;entryDy=0;" edge="1" parent="1" target="IZgogRWlO1CkMbzcWn_G-95">
          <mxGeometry width="50" height="50" relative="1" as="geometry">
            <mxPoint x="735.02" y="370.50000000000006" as="sourcePoint" />
            <mxPoint x="835.02" y="370.50000000000006" as="targetPoint" />
          </mxGeometry>
        </mxCell>
        <mxCell id="IZgogRWlO1CkMbzcWn_G-94" value="ProcessCreate" style="edgeLabel;html=1;align=center;verticalAlign=middle;resizable=0;points=[];" vertex="1" connectable="0" parent="IZgogRWlO1CkMbzcWn_G-93">
          <mxGeometry x="0.152" y="-2" relative="1" as="geometry">
            <mxPoint x="-10" y="-10" as="offset" />
          </mxGeometry>
        </mxCell>
        <mxCell id="IZgogRWlO1CkMbzcWn_G-95" value="" style="ellipse;whiteSpace=wrap;html=1;aspect=fixed;fillColor=#f8cecc;strokeColor=#b85450;" vertex="1" parent="1">
          <mxGeometry x="851.02" y="359.50000000000006" width="20" height="20" as="geometry" />
        </mxCell>
        <mxCell id="IZgogRWlO1CkMbzcWn_G-96" value="whoami.exe" style="text;strokeColor=none;align=center;fillColor=none;html=1;verticalAlign=middle;whiteSpace=wrap;rounded=0;" vertex="1" parent="1">
          <mxGeometry x="832.02" y="372.50000000000006" width="60" height="30" as="geometry" />
        </mxCell>
        <mxCell id="IZgogRWlO1CkMbzcWn_G-102" value="" style="endArrow=classic;html=1;rounded=0;entryX=0;entryY=0.5;entryDx=0;entryDy=0;" edge="1" parent="1" target="IZgogRWlO1CkMbzcWn_G-104">
          <mxGeometry width="50" height="50" relative="1" as="geometry">
            <mxPoint x="338" y="292.33000000000004" as="sourcePoint" />
            <mxPoint x="438" y="292.33000000000004" as="targetPoint" />
          </mxGeometry>
        </mxCell>
        <mxCell id="IZgogRWlO1CkMbzcWn_G-103" value="FileCreate" style="edgeLabel;html=1;align=center;verticalAlign=middle;resizable=0;points=[];" vertex="1" connectable="0" parent="IZgogRWlO1CkMbzcWn_G-102">
          <mxGeometry x="0.152" y="-2" relative="1" as="geometry">
            <mxPoint x="-6" y="-10" as="offset" />
          </mxGeometry>
        </mxCell>
        <mxCell id="IZgogRWlO1CkMbzcWn_G-104" value="" style="ellipse;whiteSpace=wrap;html=1;aspect=fixed;" vertex="1" parent="1">
          <mxGeometry x="484" y="281.33000000000004" width="20" height="20" as="geometry" />
        </mxCell>
        <mxCell id="IZgogRWlO1CkMbzcWn_G-105" value="MpSvc.dll" style="text;strokeColor=none;align=center;fillColor=none;html=1;verticalAlign=middle;whiteSpace=wrap;rounded=0;" vertex="1" parent="1">
          <mxGeometry x="506" y="276.33000000000004" width="60" height="30" as="geometry" />
        </mxCell>
        <mxCell id="IZgogRWlO1CkMbzcWn_G-106" value="" style="endArrow=classic;html=1;rounded=0;exitX=0.5;exitY=0;exitDx=0;exitDy=0;entryX=0.5;entryY=1;entryDx=0;entryDy=0;" edge="1" parent="1" source="IZgogRWlO1CkMbzcWn_G-87" target="IZgogRWlO1CkMbzcWn_G-104">
          <mxGeometry width="50" height="50" relative="1" as="geometry">
            <mxPoint x="390" y="270" as="sourcePoint" />
            <mxPoint x="440" y="220" as="targetPoint" />
          </mxGeometry>
        </mxCell>
        <mxCell id="IZgogRWlO1CkMbzcWn_G-107" value="ImageLoad" style="edgeLabel;html=1;align=center;verticalAlign=middle;resizable=0;points=[];" vertex="1" connectable="0" parent="IZgogRWlO1CkMbzcWn_G-106">
          <mxGeometry x="0.0349" y="-1" relative="1" as="geometry">
            <mxPoint as="offset" />
          </mxGeometry>
        </mxCell>
        <mxCell id="IZgogRWlO1CkMbzcWn_G-108" value="" style="endArrow=classic;html=1;rounded=0;entryX=0;entryY=0.5;entryDx=0;entryDy=0;exitX=0.5;exitY=0;exitDx=0;exitDy=0;" edge="1" parent="1" target="IZgogRWlO1CkMbzcWn_G-110" source="IZgogRWlO1CkMbzcWn_G-87">
          <mxGeometry width="50" height="50" relative="1" as="geometry">
            <mxPoint x="548.02" y="363.17" as="sourcePoint" />
            <mxPoint x="656.52" y="362.00000000000006" as="targetPoint" />
            <Array as="points">
              <mxPoint x="570.52" y="284.67" />
            </Array>
          </mxGeometry>
        </mxCell>
        <mxCell id="IZgogRWlO1CkMbzcWn_G-109" value="FileCreate" style="edgeLabel;html=1;align=center;verticalAlign=middle;resizable=0;points=[];" vertex="1" connectable="0" parent="IZgogRWlO1CkMbzcWn_G-108">
          <mxGeometry x="0.152" y="-2" relative="1" as="geometry">
            <mxPoint x="-10" y="-10" as="offset" />
          </mxGeometry>
        </mxCell>
        <mxCell id="IZgogRWlO1CkMbzcWn_G-110" value="" style="shape=document;whiteSpace=wrap;html=1;boundedLbl=1;" vertex="1" parent="1">
          <mxGeometry x="709.02" y="216" width="30" height="20" as="geometry" />
        </mxCell>
        <mxCell id="IZgogRWlO1CkMbzcWn_G-111" value="iusb3mon.exe" style="text;strokeColor=none;align=center;fillColor=none;html=1;verticalAlign=middle;whiteSpace=wrap;rounded=0;" vertex="1" parent="1">
          <mxGeometry x="693.02" y="230" width="65" height="26" as="geometry" />
        </mxCell>
        <mxCell id="IZgogRWlO1CkMbzcWn_G-112" value="" style="endArrow=classic;html=1;rounded=0;entryX=0;entryY=0.5;entryDx=0;entryDy=0;" edge="1" parent="1" target="IZgogRWlO1CkMbzcWn_G-114">
          <mxGeometry width="50" height="50" relative="1" as="geometry">
            <mxPoint x="570" y="290" as="sourcePoint" />
            <mxPoint x="617.52" y="287.00000000000006" as="targetPoint" />
          </mxGeometry>
        </mxCell>
        <mxCell id="IZgogRWlO1CkMbzcWn_G-113" value="FileCreate" style="edgeLabel;html=1;align=center;verticalAlign=middle;resizable=0;points=[];" vertex="1" connectable="0" parent="IZgogRWlO1CkMbzcWn_G-112">
          <mxGeometry x="0.152" y="-2" relative="1" as="geometry">
            <mxPoint x="-6" y="-10" as="offset" />
          </mxGeometry>
        </mxCell>
        <mxCell id="IZgogRWlO1CkMbzcWn_G-114" value="" style="ellipse;whiteSpace=wrap;html=1;aspect=fixed;" vertex="1" parent="1">
          <mxGeometry x="714.52" y="278.00000000000006" width="20" height="20" as="geometry" />
        </mxCell>
        <mxCell id="IZgogRWlO1CkMbzcWn_G-115" value="iusb3mon.dll" style="text;strokeColor=none;align=center;fillColor=none;html=1;verticalAlign=middle;whiteSpace=wrap;rounded=0;" vertex="1" parent="1">
          <mxGeometry x="740.52" y="273.00000000000006" width="60" height="30" as="geometry" />
        </mxCell>
        <mxCell id="IZgogRWlO1CkMbzcWn_G-118" value="" style="endArrow=classic;html=1;rounded=0;exitX=0.5;exitY=0;exitDx=0;exitDy=0;entryX=0.5;entryY=1;entryDx=0;entryDy=0;" edge="1" parent="1" source="IZgogRWlO1CkMbzcWn_G-91" target="IZgogRWlO1CkMbzcWn_G-114">
          <mxGeometry width="50" height="50" relative="1" as="geometry">
            <mxPoint x="720" y="320" as="sourcePoint" />
            <mxPoint x="770" y="270" as="targetPoint" />
          </mxGeometry>
        </mxCell>
        <mxCell id="IZgogRWlO1CkMbzcWn_G-119" value="ImageLoad" style="edgeLabel;html=1;align=center;verticalAlign=middle;resizable=0;points=[];" vertex="1" connectable="0" parent="IZgogRWlO1CkMbzcWn_G-118">
          <mxGeometry x="0.031" relative="1" as="geometry">
            <mxPoint as="offset" />
          </mxGeometry>
        </mxCell>
        <mxCell id="IZgogRWlO1CkMbzcWn_G-120" value="" style="curved=1;endArrow=classic;html=1;rounded=0;exitX=0;exitY=1;exitDx=0;exitDy=0;entryX=1;entryY=1;entryDx=0;entryDy=0;dashed=1;" edge="1" parent="1">
          <mxGeometry width="50" height="50" relative="1" as="geometry">
            <mxPoint x="716.5" y="377.5" as="sourcePoint" />
            <mxPoint x="730.5" y="377.5" as="targetPoint" />
            <Array as="points">
              <mxPoint x="703.52" y="425.5" />
              <mxPoint x="713.52" y="445.5" />
              <mxPoint x="763.52" y="445.5" />
            </Array>
          </mxGeometry>
        </mxCell>
        <mxCell id="IZgogRWlO1CkMbzcWn_G-121" value="ReflectiveInject" style="text;whiteSpace=wrap;" vertex="1" parent="1">
          <mxGeometry x="680.52" y="445.5" width="90" height="20" as="geometry" />
        </mxCell>
      </root>
    </mxGraphModel>
  </diagram>
</mxfile>
